<svg width="452" height="367" viewBox="0 0 452 367" fill="none" xmlns="http://www.w3.org/2000/svg">
<path d="M337.708 259.67L302.583 239.051L274.994 280.109C291.112 293.561 318.19 303.343 332.183 300.356C360.898 294.225 418.926 212.694 426.977 206.487C454.388 185.356 463.298 177.336 428.999 193.756C396.299 209.411 413.619 193.756 405.607 193.756C395.982 194.428 399.171 202.971 402.744 209.092L337.708 259.67Z" fill="url(#paint0_linear)"/>
<path d="M138.412 228.434C148.322 221.552 187.478 209.157 204.675 203.819L222.869 205.804C234.332 208.646 258.921 213.491 270.231 218.076C281.541 222.662 302.067 237.284 321.215 249.478L316.694 265.136C312.634 279.199 301.896 290.352 287.997 294.942C284.421 317.686 281.336 354.664 281.846 366.127L148.777 366.024L142.685 309.742L115.283 312.678L92.1362 294.942C121.12 244.81 126.025 237.036 138.412 228.434Z" fill="url(#paint1_linear)"/>
<path d="M100.343 357.76C58.1815 352.415 85.6033 309.683 93.0785 295.571C102.12 303.182 113.285 307.825 125.057 308.871L139.586 310.162L133.636 323.887L197.868 338.924L206.88 363.923C200.461 362.83 152.774 364.408 100.343 357.76Z" fill="url(#paint2_linear)"/>
<path d="M209.16 91.6297C211.235 87.8772 217.186 82.6236 224.39 91.6297H209.16Z" fill="#30235B"/>
<ellipse cx="212.618" cy="220.185" rx="22.9664" ry="16.366" fill="#CF0606"/>
<path d="M193.8 219.306L197.011 187.341H228.265L231.855 219.306C230.6 223.07 224.676 230.706 213.705 230.706C199.723 230.706 194.697 223.07 193.8 219.306Z" fill="url(#paint3_linear)"/>
<mask id="mask0" mask-type="alpha" maskUnits="userSpaceOnUse" x="193" y="187" width="39" height="44">
<path d="M193.8 219.306L197.011 187.341H228.265L231.862 219.37C230.607 223.135 224.662 230.707 213.691 230.707C199.709 230.707 194.697 223.07 193.8 219.306Z" fill="url(#paint4_linear)"/>
</mask>
<g mask="url(#mask0)">
<path opacity="0.1" d="M239.529 188.564C211.269 223.53 195.477 195.416 187.319 191.198L192.925 167.56L226.386 163.565L239.529 188.564Z" fill="black"/>
</g>
<path d="M212.076 200.173C178.371 200.173 172.575 151.791 182.989 129.661C206.42 101.023 235.71 117.729 247.426 129.661C250.246 148.103 253.357 200.173 212.076 200.173Z" fill="url(#paint5_linear)"/>
<path d="M248.001 163.16L241.398 158.295L242.419 154.674L249.962 159.647L248.001 163.16Z" fill="#111111"/>
<path d="M179.202 161.749L185.805 156.884L184.784 153.263L177.242 158.236L179.202 161.749Z" fill="#111111"/>
<path d="M185.244 132.569C209.14 148.138 235.631 139.056 245.89 132.569C243.73 139.382 246.79 152.476 248.59 158.172C264.138 137.924 259.055 126.99 254.57 124.054C253.822 113.962 244.648 88.7305 213.85 89.9266C183.052 91.1226 177.076 112.965 177.948 121.064C166.287 136.911 173.225 152.406 178.849 158.172C185.244 145.757 185.098 137.047 185.244 132.569Z" fill="#30235B"/>
<g filter="url(#filter0_d)">
<path d="M216.298 105.508C180.624 104.314 172.678 127.774 171.612 141.398C171.526 142.488 170.634 143.348 169.54 143.348C168.372 143.348 167.442 142.374 167.546 141.211C169.102 123.744 178.415 93.22 216.298 95.3246C254.547 97.4495 262.03 127.899 260.856 144.873C260.793 145.781 260.026 146.468 259.116 146.468C258.123 146.468 257.325 145.662 257.286 144.67C256.724 130.586 247.361 106.408 216.298 105.508Z" fill="white"/>
</g>
<g filter="url(#filter1_d)">
<rect x="261.571" y="152.038" width="4.84193" height="18.581" rx="2.42097" transform="rotate(10.0542 261.571 152.038)" fill="#24C28A"/>
</g>
<g filter="url(#filter2_d)">
<rect x="251.168" y="139.992" width="14.9146" height="38.7069" rx="7.45728" transform="rotate(10.0542 251.168 139.992)" fill="white"/>
</g>
<g filter="url(#filter3_d)">
<rect width="4.84193" height="18.581" rx="2.42097" transform="matrix(-0.984643 0.17458 0.17458 0.984643 165.266 152.038)" fill="#24C28A"/>
</g>
<g filter="url(#filter4_d)">
<rect width="14.9146" height="38.7069" rx="7.45728" transform="matrix(-0.984643 0.17458 0.17458 0.984643 175.533 139.992)" fill="white"/>
</g>
<mask id="mask1" mask-type="alpha" maskUnits="userSpaceOnUse" x="160" y="139" width="23" height="42">
<rect width="14.9146" height="38.7069" rx="7.45728" transform="matrix(-0.984643 0.17458 0.17458 0.984643 175.533 139.992)" fill="white"/>
</mask>
<g mask="url(#mask1)">
<rect x="168.51" y="139.992" width="19.4005" height="42.0171" transform="rotate(-10.0977 168.51 139.992)" fill="#E8E8E8"/>
</g>
<mask id="mask2" mask-type="alpha" maskUnits="userSpaceOnUse" x="244" y="139" width="22" height="42">
<rect x="251.168" y="139.992" width="14.9146" height="38.7069" rx="7.45728" transform="rotate(10.0542 251.168 139.992)" fill="white"/>
</mask>
<g mask="url(#mask2)">
<rect width="19.4005" height="42.0171" transform="matrix(-0.98451 -0.175326 -0.175326 0.98451 259.096 139.992)" fill="#E8E8E8"/>
</g>
<path opacity="0.5" d="M197.553 168.811C192.785 168.811 190.383 165.053 189.773 163.375C189.071 161.972 188.517 158.315 190.179 155.411C192.291 151.718 202.221 150.689 205.699 155.906C209.177 161.123 205.699 168.811 197.553 168.811Z" fill="#E6FCFF"/>
<path opacity="0.5" d="M229.148 168.811C233.917 168.811 236.318 165.053 236.928 163.375C237.63 161.972 238.184 158.315 236.522 155.411C234.41 151.718 224.48 150.689 221.002 155.906C217.524 161.123 221.002 168.811 229.148 168.811Z" fill="#E6FCFF"/>
<path fill-rule="evenodd" clip-rule="evenodd" d="M208.162 154.754C200.386 147.925 193.362 150.814 189.199 152.527C188.736 152.717 188.309 152.893 187.92 153.039L185.43 153.044C184.875 153.045 184.427 153.498 184.432 154.053L184.45 156.012C184.454 156.561 184.901 157.003 185.449 157.003L187.219 157.003C185.854 168.721 194.495 171.856 201.406 169.744C207.567 167.861 209.216 162.533 209.546 159.191C210.864 156.271 216.642 157.62 216.871 159.126L216.888 159.245C217.159 161.078 218.526 170.317 228.927 170.33C237.447 170.341 239.758 162.73 239.848 158.922L241.938 158.904C242.49 158.899 242.934 158.447 242.929 157.895L242.907 155.446C242.902 154.894 242.451 154.45 241.898 154.455L239.809 154.474C234.259 148.852 222.338 149.378 218.139 154.666C213.506 153.597 209.558 154.28 208.162 154.754ZM197.553 168.811C192.785 168.811 190.383 165.053 189.773 163.375C189.071 161.972 188.517 158.315 190.179 155.411C192.291 151.718 202.221 150.689 205.699 155.906C209.177 161.123 205.699 168.811 197.553 168.811ZM236.929 163.375C236.319 165.053 233.918 168.811 229.149 168.811C221.003 168.811 217.525 161.123 221.003 155.906C224.481 150.688 234.411 151.718 236.524 155.411C238.185 158.315 237.631 161.972 236.929 163.375Z" fill="#111111"/>
<path d="M145.958 361.385C145.958 360.894 146.356 360.497 146.847 360.497H283.369C284.227 360.497 284.923 361.193 284.923 362.051C284.923 364.627 282.835 366.715 280.26 366.715H151.288C148.345 366.715 145.958 364.329 145.958 361.385Z" fill="#B4B4B4"/>
<rect x="145.958" y="269.829" width="138.965" height="92.9767" rx="2.94666" fill="url(#paint6_linear)"/>
<circle cx="215.441" cy="316.317" r="9.88287" fill="white"/>
<path fill-rule="evenodd" clip-rule="evenodd" d="M116.702 150.214C116.878 147.199 117.479 144.676 117.98 143.274C118.964 145.734 119.45 148.095 119.614 150.249C121.768 150.413 124.13 150.9 126.59 151.884C125.187 152.385 122.664 152.986 119.65 153.162C119.482 156.362 118.659 158.848 117.98 160.121C117.153 157.808 116.776 155.427 116.678 153.186C114.436 153.087 112.056 152.71 109.742 151.884C111.015 151.205 113.502 150.382 116.702 150.214Z" fill="url(#paint7_linear)"/>
<path fill-rule="evenodd" clip-rule="evenodd" d="M92.9258 130.383C93.0431 128.376 93.4431 126.697 93.7765 125.763C94.4315 127.401 94.7552 128.973 94.8647 130.406C96.2982 130.516 97.8702 130.839 99.5076 131.494C98.5741 131.828 96.8946 132.228 94.8882 132.345C94.7763 134.475 94.2286 136.13 93.7765 136.978C93.2264 135.437 92.9754 133.853 92.9099 132.361C91.4177 132.296 89.8334 132.045 88.2932 131.494C89.1408 131.042 90.7958 130.495 92.9258 130.383Z" fill="url(#paint8_linear)"/>
<path fill-rule="evenodd" clip-rule="evenodd" d="M54.6172 116.254C54.7934 113.24 55.3944 110.717 55.8952 109.314C56.8792 111.774 57.3656 114.136 57.53 116.29C59.6837 116.454 62.0453 116.941 64.5051 117.925C63.1027 118.425 60.5796 119.026 57.5654 119.203C57.3973 122.403 56.5744 124.889 55.8952 126.162C55.0688 123.848 54.6917 121.468 54.5933 119.226C52.3515 119.128 49.9713 118.751 47.6573 117.925C48.9308 117.245 51.4171 116.422 54.6172 116.254Z" fill="url(#paint9_linear)"/>
<path fill-rule="evenodd" clip-rule="evenodd" d="M57.8968 185.528C58.1561 181.093 59.0402 177.381 59.7771 175.318C61.2248 178.937 61.9403 182.411 62.1822 185.58C65.3508 185.822 68.8253 186.537 72.4443 187.985C70.381 188.722 66.6689 189.606 62.2344 189.865C61.9871 194.573 60.7763 198.231 59.7771 200.105C58.5613 196.7 58.0064 193.199 57.8617 189.9C54.5635 189.756 51.0617 189.201 47.6573 187.985C49.5309 186.986 53.1888 185.775 57.8968 185.528Z" fill="url(#paint10_linear)"/>
<circle cx="84.8392" cy="159.305" r="1.62828" fill="#2F235A"/>
<circle cx="122.206" cy="112.619" r="1.62828" fill="#FE9076"/>
<circle cx="40.3065" cy="152.841" r="1.62828" fill="#FFA400"/>
<circle cx="113.281" cy="184.419" r="1.62828" fill="#23BB86"/>
<path d="M118.217 105.823C114.535 100.767 104.165 89.9679 92.1362 87.2184" stroke="#FE9076" stroke-width="1.60277" stroke-linecap="round"/>
<path d="M33.4363 148.477C27.9953 145.393 14.0906 139.841 1.99994 142.306" stroke="#FFA400" stroke-width="1.60277" stroke-linecap="round"/>
<path d="M107.692 189.148C104.904 191.609 98.1964 198.595 93.6698 206.861" stroke="#23BB86" stroke-width="1.60277" stroke-linecap="round"/>
<path fill-rule="evenodd" clip-rule="evenodd" d="M308.895 150.214C308.719 147.199 308.118 144.676 307.617 143.274C306.633 145.734 306.146 148.095 305.982 150.249C303.828 150.413 301.467 150.9 299.007 151.884C300.409 152.385 302.932 152.986 305.947 153.162C306.115 156.362 306.938 158.848 307.617 160.121C308.443 157.808 308.82 155.427 308.919 153.186C311.16 153.087 313.541 152.71 315.855 151.884C314.581 151.205 312.095 150.382 308.895 150.214Z" fill="url(#paint11_linear)"/>
<path fill-rule="evenodd" clip-rule="evenodd" d="M332.671 130.383C332.553 128.376 332.153 126.697 331.82 125.763C331.165 127.401 330.841 128.973 330.732 130.406C329.298 130.516 327.726 130.839 326.089 131.494C327.022 131.828 328.702 132.228 330.708 132.345C330.82 134.475 331.368 136.13 331.82 136.978C332.37 135.437 332.621 133.853 332.686 132.361C334.179 132.296 335.763 132.045 337.303 131.494C336.456 131.042 334.801 130.495 332.671 130.383Z" fill="url(#paint12_linear)"/>
<path fill-rule="evenodd" clip-rule="evenodd" d="M370.979 116.254C370.803 113.24 370.202 110.717 369.701 109.314C368.717 111.774 368.231 114.136 368.066 116.29C365.913 116.454 363.551 116.941 361.091 117.925C362.494 118.425 365.017 119.026 368.031 119.203C368.199 122.403 369.022 124.889 369.701 126.162C370.528 123.848 370.905 121.468 371.003 119.226C373.245 119.128 375.625 118.751 377.939 117.925C376.666 117.245 374.179 116.422 370.979 116.254Z" fill="url(#paint13_linear)"/>
<path fill-rule="evenodd" clip-rule="evenodd" d="M367.699 185.528C367.44 181.093 366.556 177.381 365.819 175.318C364.371 178.937 363.656 182.411 363.414 185.58C360.245 185.822 356.771 186.537 353.152 187.985C355.215 188.722 358.927 189.606 363.362 189.865C363.609 194.573 364.82 198.231 365.819 200.105C367.035 196.7 367.59 193.199 367.734 189.9C371.033 189.756 374.535 189.201 377.939 187.985C376.065 186.986 372.407 185.775 367.699 185.528Z" fill="url(#paint14_linear)"/>
<circle r="1.62828" transform="matrix(-1 0 0 1 340.757 159.305)" fill="#2F235A"/>
<circle r="1.62828" transform="matrix(-1 0 0 1 303.39 112.619)" fill="#FE9076"/>
<circle r="1.62828" transform="matrix(-1 0 0 1 385.29 152.841)" fill="#FFA400"/>
<circle r="1.62828" transform="matrix(-1 0 0 1 312.316 184.419)" fill="#23BB86"/>
<path d="M307.38 105.823C311.061 100.767 321.431 89.9679 333.46 87.2184" stroke="#FE9076" stroke-width="1.60277" stroke-linecap="round"/>
<path d="M392.16 148.477C397.601 145.393 411.506 139.841 423.596 142.306" stroke="#FFA400" stroke-width="1.60277" stroke-linecap="round"/>
<path d="M317.904 189.148C320.692 191.609 327.4 198.595 331.926 206.861" stroke="#23BB86" stroke-width="1.60277" stroke-linecap="round"/>
<circle cx="173.356" cy="6.18607" r="6.02518" stroke="#F7F7F7" stroke-width="0.321779"/>
<defs>
<filter id="filter0_d" x="133.538" y="65.2212" width="161.432" height="119.247" filterUnits="userSpaceOnUse" color-interpolation-filters="sRGB">
<feFlood flood-opacity="0" result="BackgroundImageFix"/>
<feColorMatrix in="SourceAlpha" type="matrix" values="0 0 0 0 0 0 0 0 0 0 0 0 0 0 0 0 0 0 127 0"/>
<feOffset dy="4"/>
<feGaussianBlur stdDeviation="17"/>
<feColorMatrix type="matrix" values="0 0 0 0 0.0386285 0 0 0 0 0.0648437 0 0 0 0 0.104167 0 0 0 0.13 0"/>
<feBlend mode="normal" in2="BackgroundImageFix" result="effect1_dropShadow"/>
<feBlend mode="normal" in="SourceGraphic" in2="effect1_dropShadow" result="shape"/>
</filter>
<filter id="filter1_d" x="224.327" y="122.038" width="76.0114" height="87.1409" filterUnits="userSpaceOnUse" color-interpolation-filters="sRGB">
<feFlood flood-opacity="0" result="BackgroundImageFix"/>
<feColorMatrix in="SourceAlpha" type="matrix" values="0 0 0 0 0 0 0 0 0 0 0 0 0 0 0 0 0 0 127 0"/>
<feOffset dy="4"/>
<feGaussianBlur stdDeviation="17"/>
<feColorMatrix type="matrix" values="0 0 0 0 0.0386285 0 0 0 0 0.0648437 0 0 0 0 0.104167 0 0 0 0.13 0"/>
<feBlend mode="normal" in2="BackgroundImageFix" result="effect1_dropShadow"/>
<feBlend mode="normal" in="SourceGraphic" in2="effect1_dropShadow" result="shape"/>
</filter>
<filter id="filter2_d" x="210.411" y="109.992" width="89.443" height="108.716" filterUnits="userSpaceOnUse" color-interpolation-filters="sRGB">
<feFlood flood-opacity="0" result="BackgroundImageFix"/>
<feColorMatrix in="SourceAlpha" type="matrix" values="0 0 0 0 0 0 0 0 0 0 0 0 0 0 0 0 0 0 127 0"/>
<feOffset dy="4"/>
<feGaussianBlur stdDeviation="17"/>
<feColorMatrix type="matrix" values="0 0 0 0 0.0386285 0 0 0 0 0.0648437 0 0 0 0 0.104167 0 0 0 0.13 0"/>
<feBlend mode="normal" in2="BackgroundImageFix" result="effect1_dropShadow"/>
<feBlend mode="normal" in="SourceGraphic" in2="effect1_dropShadow" result="shape"/>
</filter>
<filter id="filter3_d" x="126.498" y="122.038" width="76.0114" height="87.1409" filterUnits="userSpaceOnUse" color-interpolation-filters="sRGB">
<feFlood flood-opacity="0" result="BackgroundImageFix"/>
<feColorMatrix in="SourceAlpha" type="matrix" values="0 0 0 0 0 0 0 0 0 0 0 0 0 0 0 0 0 0 127 0"/>
<feOffset dy="4"/>
<feGaussianBlur stdDeviation="17"/>
<feColorMatrix type="matrix" values="0 0 0 0 0.0386285 0 0 0 0 0.0648437 0 0 0 0 0.104167 0 0 0 0.13 0"/>
<feBlend mode="normal" in2="BackgroundImageFix" result="effect1_dropShadow"/>
<feBlend mode="normal" in="SourceGraphic" in2="effect1_dropShadow" result="shape"/>
</filter>
<filter id="filter4_d" x="126.848" y="109.992" width="89.443" height="108.716" filterUnits="userSpaceOnUse" color-interpolation-filters="sRGB">
<feFlood flood-opacity="0" result="BackgroundImageFix"/>
<feColorMatrix in="SourceAlpha" type="matrix" values="0 0 0 0 0 0 0 0 0 0 0 0 0 0 0 0 0 0 127 0"/>
<feOffset dy="4"/>
<feGaussianBlur stdDeviation="17"/>
<feColorMatrix type="matrix" values="0 0 0 0 0.0386285 0 0 0 0 0.0648437 0 0 0 0 0.104167 0 0 0 0.13 0"/>
<feBlend mode="normal" in2="BackgroundImageFix" result="effect1_dropShadow"/>
<feBlend mode="normal" in="SourceGraphic" in2="effect1_dropShadow" result="shape"/>
</filter>
<linearGradient id="paint0_linear" x1="346.667" y1="139.997" x2="349.007" y2="295.509" gradientUnits="userSpaceOnUse">
<stop stop-color="#FFEFE0"/>
<stop offset="1" stop-color="#FFBE99"/>
</linearGradient>
<linearGradient id="paint1_linear" x1="215.349" y1="177.036" x2="204.385" y2="396.63" gradientUnits="userSpaceOnUse">
<stop stop-color="#FF9F81"/>
<stop offset="1" stop-color="#F53838"/>
</linearGradient>
<linearGradient id="paint2_linear" x1="202.028" y1="254.209" x2="97.0913" y2="304.501" gradientUnits="userSpaceOnUse">
<stop offset="0.0677966" stop-color="#FFEFE0"/>
<stop offset="1" stop-color="#FFBE99"/>
</linearGradient>
<linearGradient id="paint3_linear" x1="211.75" y1="152.955" x2="213.589" y2="211.657" gradientUnits="userSpaceOnUse">
<stop stop-color="#FFEFE0"/>
<stop offset="1" stop-color="#FFBE99"/>
</linearGradient>
<linearGradient id="paint4_linear" x1="211.75" y1="152.955" x2="209.173" y2="219.831" gradientUnits="userSpaceOnUse">
<stop stop-color="#FFEFE0"/>
<stop offset="1" stop-color="#FFBE99"/>
</linearGradient>
<linearGradient id="paint5_linear" x1="214.806" y1="121.659" x2="214.806" y2="192.151" gradientUnits="userSpaceOnUse">
<stop stop-color="#FFEFE0"/>
<stop offset="1" stop-color="#FFBE99"/>
</linearGradient>
<linearGradient id="paint6_linear" x1="244.135" y1="200.05" x2="192.755" y2="384.412" gradientUnits="userSpaceOnUse">
<stop offset="0.0171777" stop-color="white"/>
<stop offset="1" stop-color="#D7D7D7"/>
</linearGradient>
<linearGradient id="paint7_linear" x1="118.166" y1="145.067" x2="118.166" y2="160.886" gradientUnits="userSpaceOnUse">
<stop stop-color="#FFE89E"/>
<stop offset="1" stop-color="#FFBF1A"/>
</linearGradient>
<linearGradient id="paint8_linear" x1="93.9004" y1="126.957" x2="93.9004" y2="137.487" gradientUnits="userSpaceOnUse">
<stop stop-color="#FFE89E"/>
<stop offset="1" stop-color="#FFBF1A"/>
</linearGradient>
<linearGradient id="paint9_linear" x1="56.0812" y1="111.108" x2="56.0812" y2="126.927" gradientUnits="userSpaceOnUse">
<stop stop-color="#FFE89E"/>
<stop offset="1" stop-color="#FFBF1A"/>
</linearGradient>
<linearGradient id="paint10_linear" x1="60.0508" y1="177.956" x2="60.0508" y2="201.229" gradientUnits="userSpaceOnUse">
<stop stop-color="#FFE89E"/>
<stop offset="1" stop-color="#FFBF1A"/>
</linearGradient>
<linearGradient id="paint11_linear" x1="307.431" y1="145.067" x2="307.431" y2="160.886" gradientUnits="userSpaceOnUse">
<stop stop-color="#FFE89E"/>
<stop offset="1" stop-color="#FFBF1A"/>
</linearGradient>
<linearGradient id="paint12_linear" x1="331.696" y1="126.957" x2="331.696" y2="137.487" gradientUnits="userSpaceOnUse">
<stop stop-color="#FFE89E"/>
<stop offset="1" stop-color="#FFBF1A"/>
</linearGradient>
<linearGradient id="paint13_linear" x1="369.515" y1="111.108" x2="369.515" y2="126.927" gradientUnits="userSpaceOnUse">
<stop stop-color="#FFE89E"/>
<stop offset="1" stop-color="#FFBF1A"/>
</linearGradient>
<linearGradient id="paint14_linear" x1="365.545" y1="177.956" x2="365.545" y2="201.229" gradientUnits="userSpaceOnUse">
<stop stop-color="#FFE89E"/>
<stop offset="1" stop-color="#FFBF1A"/>
</linearGradient>
</defs>
</svg>
