<svg width="425" height="406" viewBox="0 0 425 406" fill="none" xmlns="http://www.w3.org/2000/svg">
<g opacity="0.64">
<ellipse cx="212.5" cy="203" rx="212.5" ry="203" fill="#BFF3F1"/>
<g opacity="0.37">
<path d="M87 291.195V320.768C87 324.993 89.2099 328.373 91.9722 328.373H117.938C120.701 328.373 122.91 324.993 122.91 320.768V256.552L101.917 282.745C97.4969 287.815 92.5247 291.195 87 291.195Z" fill="#CA30FF"/>
<path d="M158.821 236.758V321.559C158.821 325.345 161.031 328.373 163.793 328.373H189.759C192.522 328.373 194.731 325.345 194.731 321.559V211.015L188.654 202.687L158.821 236.758Z" fill="#CA30FF"/>
<path d="M230.642 239.288V322.158C230.642 325.611 232.852 328.373 235.614 328.373H261.58C264.342 328.373 266.552 325.611 266.552 322.158V220.642L258.818 229.619C252.74 236.525 245.006 239.978 236.719 239.978C234.509 239.288 232.852 239.288 230.642 239.288Z" fill="#CA30FF"/>
<path d="M302.463 202.687V322.324C302.463 325.685 304.673 328.373 307.435 328.373H333.401C336.163 328.373 338.373 325.685 338.373 322.324V206.719C333.953 210.752 328.429 213.441 322.352 213.441C314.617 212.768 307.987 209.408 302.463 202.687Z" fill="#CA30FF"/>
<path d="M193.428 166.189L194.72 167.531L222.498 196.366C227.666 201.731 236.709 202.402 242.523 197.037L301.309 144.73L312.937 168.201C314.229 170.883 317.459 171.554 319.397 171.554C321.335 171.554 323.919 169.542 324.565 166.189L338.131 84.3766C338.777 82.3648 338.131 80.353 336.193 79.0118C334.901 77.6706 332.963 77 331.025 77L250.921 91.0825C247.691 91.7531 246.399 93.7649 245.753 96.4473C245.753 98.4591 246.399 101.141 248.983 103.153L271.593 115.224L231.542 163.507L203.118 134.001L202.472 133.33C199.888 131.318 197.304 129.977 194.074 129.977C193.428 129.977 193.428 129.977 192.782 129.977C189.552 129.977 186.322 131.989 183.738 134.671L87.4845 254.037C86.8385 254.708 86.8385 255.379 87.4845 256.049C88.1305 256.72 89.4225 256.72 90.0685 256.049L193.428 166.189Z" fill="#007EFF"/>
</g>
</g>
</svg>
