<svg width="32" height="33" viewBox="0 0 32 33" fill="none" xmlns="http://www.w3.org/2000/svg">
<path fill-rule="evenodd" clip-rule="evenodd" d="M0 5.08619C0 2.82719 1.835 0.992188 4.094 0.992188H27.907C30.166 0.992188 32.001 2.82719 32.001 5.08619V28.8992C32.001 31.1582 30.166 32.9932 27.907 32.9932H4.094C1.835 32.9932 0 31.1582 0 28.8992V5.08619ZM26.938 4.55519H23.313C22.52 4.55519 21.875 5.20019 21.875 5.99319V9.43119C21.875 10.2232 22.52 10.8692 23.313 10.8692H26.938C27.731 10.8692 28.376 10.2242 28.376 9.43119V5.99319C28.376 5.20119 27.73 4.55519 26.938 4.55519ZM16.032 10.6802C19.582 10.6802 22.47 13.4912 22.47 16.9302C22.47 20.3692 19.583 23.1492 16.032 23.1492C12.482 23.1492 9.594 20.3692 9.594 16.9302C9.594 13.4912 12.483 10.6802 16.032 10.6802ZM6.501 14.5242H3.566V28.0552C3.566 28.7552 4.116 29.3052 4.816 29.3052H27.097C27.797 29.3052 28.378 28.7552 28.378 28.0552V14.5242H25.565C25.832 15.3942 25.971 16.3202 25.971 17.2742C25.971 22.5972 21.527 26.8992 16.033 26.8992C10.539 26.8992 6.095 22.5962 6.095 17.2742C6.095 16.3202 6.235 15.3952 6.501 14.5242Z" fill="white"/>
</svg>
