<svg width="32" height="33" viewBox="0 0 32 33" fill="none" xmlns="http://www.w3.org/2000/svg">
<path d="M16 0.992188C7.165 0.992188 0 8.15419 0 16.9922C0 24.0602 4.579 30.0642 10.938 32.1802C11.738 32.3272 12.032 31.8232 12.032 31.3992C12.032 31.0192 12.009 30.0152 12.001 28.6802C7.55 29.6472 6.626 26.5242 6.626 26.5242C5.898 24.6762 4.845 24.2112 4.845 24.2112C3.392 23.2182 4.97 23.2112 4.97 23.2112C6.576 23.3242 7.408 24.8672 7.408 24.8672C8.835 27.3122 11.153 26.6212 12.064 26.2112C12.209 25.1772 12.638 24.4552 13.095 24.0552C9.542 23.6512 5.782 22.2812 5.782 16.1492C5.782 14.4022 6.414 12.9862 7.438 11.8682C7.274 11.4632 6.724 9.82019 7.594 7.61819C7.594 7.61819 8.943 7.20419 12 9.27419C13.276 8.91919 14.639 8.75019 16 8.74319C17.359 8.74919 18.722 8.91919 20 9.27419C23.055 7.20419 24.406 7.61819 24.406 7.61819C25.279 9.82119 24.727 11.4642 24.562 11.8682C25.587 12.9872 26.218 14.4032 26.218 16.1492C26.218 22.2962 22.47 23.6592 18.905 24.0552C19.48 24.5492 19.999 25.5312 19.999 27.0242C19.999 29.1632 19.968 30.8752 19.968 31.3992C19.968 31.8272 20.25 32.3372 21.062 32.1802C27.414 30.0602 32 24.0602 32 16.9922C32 8.15419 24.837 0.992188 16 0.992188V0.992188Z" fill="white"/>
</svg>
