<svg width="32" height="33" viewBox="0 0 32 33" fill="none" xmlns="http://www.w3.org/2000/svg">
<path fill-rule="evenodd" clip-rule="evenodd" d="M0 3.30519C0 2.03219 1.071 0.992188 2.375 0.992188H29.625C30.93 0.992188 32 2.03319 32 3.30519V30.6802C32 31.9552 30.93 32.9932 29.625 32.9932H2.375C1.071 32.9932 0 31.9542 0 30.6802V3.30519ZM9.875 8.14819C9.875 6.63019 8.642 5.39819 7.125 5.39819C5.604 5.39819 4.375 6.63019 4.375 8.14819C4.375 9.66819 5.604 10.8982 7.125 10.8982C8.643 10.8982 9.875 9.66819 9.875 8.14819ZM21.5636 12.6172C26.3661 12.6174 27.282 15.7843 27.282 19.8982V28.2732H22.532V20.8352C22.532 19.0632 22.495 16.7722 20.063 16.7722C17.593 16.7722 17.219 18.7172 17.219 20.7102V28.2732H12.469V12.9922H17.032V15.0862H17.095C17.729 13.8863 19.2548 12.6173 21.5636 12.6172ZM21.5636 12.6172C21.5637 12.6172 21.5639 12.6172 21.564 12.6172H21.563C21.5632 12.6172 21.5634 12.6172 21.5636 12.6172ZM9.5 12.9922H4.75V28.2732H9.5V12.9922Z" fill="white"/>
</svg>
